{"title":"Dharam Sankat Mein(2015)x264 SAP 1CD HDTV RIP-AAC 2.0-Team Telly","uid":11960307,"size":751034359,"categoryP":"video","categoryS":"other","magnet":"?xt=urn:btih:bdef3dde7f76c4a3e93aff1eb66ce9f6b33cde84&amp;dn=Dharam+Sankat+Mein%282015%29x264+SAP+1CD+HDTV+RIP-AAC+2.0-Team+Telly&amp;tr=udp%3A%2F%2Ftracker.openbittorrent.com%3A80&amp;tr=udp%3A%2F%2Fopen.demonii.com%3A1337&amp;tr=udp%3A%2F%2Ftracker.coppersurfer.tk%3A6969&amp;tr=udp%3A%2F%2Fexodus.desync.com%3A6969","seeders":6,"leechers":2,"uploader":"SS132203","files":3,"time":1432544417,"description":"Dharam Sankat Mein(2015)x264 SAP 1CD HDTV RIP-AAC 2.0-Team Telly Exclusive \n &lt;a href=&quot;\nhttp://imgsparrow.co/image/hT&quot; rel=&quot;nofollow&quot; target=&quot;_NEW&quot;&gt;\nhttp://imgsparrow.co/image/hT&lt;/a&gt;\n &lt;a href=&quot;\nhttp://imgsparrow.co/image/9B&quot; rel=&quot;nofollow&quot; target=&quot;_NEW&quot;&gt;\nhttp://imgsparrow.co/image/9B&lt;/a&gt;\n\nInfo : - \n\nAll Credits Goes To Team Telly\nSample Within Torrent\n\nFormat                      : MPEG-4\nFormat profile              : Base Media\nCodec ID                    : isom\nFile size                   : 704 MiB\nDuration                    : 2h 4mn\nOverall bit rate mode       : Variable\nOverall bit rate            : 793 Kbps\nEncoded date                : UTC 2015-05-25 06:28:04\nTagged date                 : UTC 2015-05-25 06:28:04\n\nVideo\nID                          : 1\nFormat                      : AVC\nFormat/Info                 : Advanced Video Codec\nFormat profile              : &lt;a class=&quot;__cf_email__&quot; href=&quot;/cdn-cgi/l/email-protection&quot; data-cfemail=&quot;115c70787f515d223f20&quot;&gt;[email&amp;#160;protected]&lt;/a&gt;&lt;script data-cfhash='f9e31' type=&quot;text/javascript&quot;&gt;\n/* &lt;![CDATA[ */!function(){try{var t=&quot;currentScript&quot;in document?document.currentScript:function(){for(var t=document.getElementsByTagName(&quot;script&quot;),e=t.length;e--;)if(t[e].getAttribute(&quot;data-cfhash&quot;))return t[e]}();if(t&amp;&amp;t.previousSibling){var e,r,n,i,c=t.previousSibling,a=c.getAttribute(&quot;data-cfemail&quot;);if(a){for(e=&quot;&quot;,r=parseInt(a.substr(0,2),16),n=2;a.length-n;n+=2)i=parseInt(a.substr(n,2),16)^r,e+=String.fromCharCode(i);e=document.createTextNode(e),c.parentNode.replaceChild(e,c)}t.parentNode.removeChild(t);}}catch(u){}}()/* ]]&gt; */&lt;/script&gt;\nFormat settings, CABAC      : Yes\nFormat settings, ReFrames   : 3 frames\nCodec ID                    : avc1\nCodec ID/Info               : Advanced Video Coding\nDuration                    : 2h 4mn\nBit rate                    : 721 Kbps\nMaximum bit rate            : 6 003 Kbps\nWidth                       : 640 pixels\nHeight                      : 288 pixels\nDisplay aspect ratio        : 2.222\nFrame rate mode             : Constant\nFrame rate                  : 30.000 fps\nColor space                 : YUV\nChroma subsampling          : 4:2:0\nBit depth                   : 8 bits\nScan type                   : Progressive\nBits/(Pixel*Frame)          : 0.130\nStream size                 : 644 MiB (92%)\nWriting library             : x264 core 142 r2431 ac76440\nEncoding settings           : cabac=1 / ref=3 / deblock=1:-1:-1 / analyse=0x1:0x111 / me=hex / subme=6 / psy=1 / psy_rd=1.00:0.15 / mixed_ref=1 / me_range=16 / chroma_me=1 / trellis=2 / 8x8dct=0 / cqm=0 / deadzone=21,11 / fast_pskip=1 / chroma_qp_offset=-3 / threads=6 / lookahead_threads=1 / sliced_threads=0 / nr=0 / decimate=1 / interlaced=0 / bluray_compat=0 / constrained_intra=0 / bframes=3 / b_pyramid=0 / b_adapt=2 / b_bias=0 / direct=2 / weightb=1 / open_gop=0 / weightp=2 / keyint=288 / keyint_min=28 / scenecut=48 / intra_refresh=0 / rc_lookahead=48 / rc=abr / mbtree=1 / bitrate=721 / ratetol=1.0 / qcomp=0.60 / qpmin=0 / qpmax=69 / qpstep=4 / vbv_maxrate=14000 / vbv_bufsize=14000 / nal_hrd=none / filler=0 / ip_ratio=1.40 / aq=1:1.00\nEncoded date                : UTC 2015-05-25 06:02:06\nTagged date                 : UTC 2015-05-25 06:28:11\nColor primaries             : BT.601 NTSC\nTransfer characteristics    : BT.601\nMatrix coefficients         : BT.601\nColor range                 : Limited\n\nAudio\nID                          : 2\nFormat                      : AAC\nFormat/Info                 : Advanced Audio Codec\nFormat profile              : HE-AAC / LC\nCodec ID                    : 40\nDuration                    : 2h 4mn\nBit rate mode               : Variable\nBit rate                    : 64.0 Kbps\nMaximum bit rate            : 80.8 Kbps\nChannel(s)                  : 2 channels\nChannel positions           : Front: L R\nSampling rate               : 44.1 KHz / 22.05 KHz\nCompression mode            : Lossy\nStream size                 : 56.9 MiB (8%)\n\nScreens : - \n &lt;a href=&quot;\nhttp://imgsparrow.co/image/rG&quot; rel=&quot;nofollow&quot; target=&quot;_NEW&quot;&gt;\nhttp://imgsparrow.co/image/rG&lt;/a&gt; &lt;a href=&quot;\nhttp://imgsparrow.co/image/re&quot; rel=&quot;nofollow&quot; target=&quot;_NEW&quot;&gt;\nhttp://imgsparrow.co/image/re&lt;/a&gt; &lt;a href=&quot;\nhttp://imgsparrow.co/image/rg&quot; rel=&quot;nofollow&quot; target=&quot;_NEW&quot;&gt;\nhttp://imgsparrow.co/image/rg&lt;/a&gt; &lt;a href=&quot;\nhttp://imgsparrow.co/image/rq&quot; rel=&quot;nofollow&quot; target=&quot;_NEW&quot;&gt;\nhttp://imgsparrow.co/image/rq&lt;/a&gt; &lt;a href=&quot;\nhttp://imgsparrow.co/image/rz&quot; rel=&quot;nofollow&quot; target=&quot;_NEW&quot;&gt;\nhttp://imgsparrow.co/image/rz&lt;/a&gt; &lt;a href=&quot;\nhttp://imgsparrow.co/image/r7&quot; rel=&quot;nofollow&quot; target=&quot;_NEW&quot;&gt;\nhttp://imgsparrow.co/image/r7&lt;/a&gt; &lt;a href=&quot;\nhttp://imgsparrow.co/image/rk&quot; rel=&quot;nofollow&quot; target=&quot;_NEW&quot;&gt;\nhttp://imgsparrow.co/image/rk&lt;/a&gt; &lt;a href=&quot;\nhttp://imgsparrow.co/image/rn&quot; rel=&quot;nofollow&quot; target=&quot;_NEW&quot;&gt;\nhttp://imgsparrow.co/image/rn&lt;/a&gt; &lt;a href=&quot;\nhttp://imgsparrow.co/image/ry&quot; rel=&quot;nofollow&quot; target=&quot;_NEW&quot;&gt;\nhttp://imgsparrow.co/image/ry&lt;/a&gt; &lt;a href=&quot;\nhttp://imgsparrow.co/image/r5&quot; rel=&quot;nofollow&quot; target=&quot;_NEW&quot;&gt;\nhttp://imgsparrow.co/image/r5&lt;/a&gt;\n &lt;a href=&quot;\nhttp://imgsparrow.co/image/N2&quot; rel=&quot;nofollow&quot; target=&quot;_NEW&quot;&gt;\nhttp://imgsparrow.co/image/N2&lt;/a&gt;","torrent":{"xt":"urn:btih:bdef3dde7f76c4a3e93aff1eb66ce9f6b33cde84","amp;dn":"Dharam+Sankat+Mein%282015%29x264+SAP+1CD+HDTV+RIP-AAC+2.0-Team+Telly","amp;tr":["udp%3A%2F%2Ftracker.openbittorrent.com%3A80","udp%3A%2F%2Fopen.demonii.com%3A1337","udp%3A%2F%2Ftracker.coppersurfer.tk%3A6969","udp%3A%2F%2Fexodus.desync.com%3A6969"],"infoHash":"bdef3dde7f76c4a3e93aff1eb66ce9f6b33cde84","infoHashBuffer":{"type":"Buffer","data":[189,239,61,222,127,118,196,163,233,58,255,30,182,108,233,246,179,60,222,132]},"announce":[],"urlList":[]}}